<svg width="42" height="46" viewBox="0 0 42 46" fill="none" xmlns="http://www.w3.org/2000/svg">
<path d="M39.2132 22.5364H36.5071L34.7851 17.2282C34.1454 15.3463 32.7187 13.8986 30.9475 13.1747C31.1936 12.3059 31.3412 11.3891 31.3412 10.4721C31.3412 4.72954 26.5686 0 20.6644 0C14.7604 0 9.98767 4.68107 9.98767 10.4721C9.98767 11.4374 10.1353 12.3059 10.3813 13.1747C8.61016 13.8986 7.1835 15.3463 6.54375 17.2282L4.82178 22.5364H2.11563C0.934961 22.5364 0 23.4535 0 24.6115L0.00038147 25.8178C0.00038147 26.9758 0.935362 27.8929 2.11601 27.8929H2.85415C2.41126 29.8231 2.21442 31.7535 2.21442 33.732V43.7692C2.21442 44.9272 3.14941 45.8443 4.33005 45.8443H7.87234C9.053 45.8443 9.98796 44.9272 9.98796 43.7692V40.5844H31.2917V43.7692C31.2917 44.9272 32.2267 45.8443 33.4073 45.8443H36.9496C38.1302 45.8443 39.0652 44.9272 39.0652 43.7692V33.732C39.0652 31.7535 38.8192 29.8231 38.4255 27.8929H39.1636C40.3443 27.8929 41.2793 26.9758 41.2793 25.8178V24.6598C41.3285 23.4531 40.3939 22.5364 39.2128 22.5364H39.2132ZM20.6654 2.55773C25.0935 2.55773 28.7342 6.12866 28.7342 10.4719C28.7342 14.8152 25.0935 18.3861 20.6654 18.3861C16.2373 18.3861 12.5965 14.8152 12.5965 10.4719C12.5965 6.08039 16.2373 2.55773 20.6654 2.55773ZM8.56188 24.7078L10.5791 18.4826C10.8251 17.7104 11.514 17.1316 12.301 16.8902C14.269 19.3031 17.2701 20.8955 20.6651 20.8955C24.0598 20.8955 27.0612 19.3031 29.0292 16.8902C29.8165 17.0833 30.4558 17.6625 30.7511 18.4826L32.7683 24.7078C32.8667 24.9974 32.6699 25.287 32.3254 25.287L9.00414 25.2867C8.70927 25.2867 8.46321 24.9975 8.56164 24.7078H8.56188ZM13.0388 34.8418H8.75836C8.02021 34.8418 7.47926 34.2626 7.47926 33.5872V31.6083C7.47926 30.8361 8.2174 30.209 9.00436 30.3538L12.9896 30.9812C13.5309 31.0778 13.9246 31.4639 14.0718 31.9944L14.3671 33.3455C14.4659 34.1177 13.8754 34.8417 13.0388 34.8417L13.0388 34.8418ZM33.9002 33.5869C33.9002 34.3109 33.3096 34.8414 32.6211 34.8414H28.3406C27.504 34.8414 26.9139 34.0692 27.0615 33.2973L27.3567 31.9463C27.4552 31.4153 27.8981 31.0292 28.439 30.9331L32.4242 30.3056C33.2116 30.1608 33.9493 30.7883 33.9493 31.5602V33.587L33.9002 33.5869Z" fill="black"/>
<path d="M15.6957 12.4025H16.7287C17.4668 14.4293 19.2379 15.7804 21.206 15.7804C22.4359 15.7804 23.5677 15.2977 24.4531 14.3811C24.5023 14.3328 24.5515 14.2363 24.5515 14.1398C24.5515 14.0432 24.5023 13.9467 24.4531 13.8984L23.4689 13.0297C23.3213 12.9331 23.1244 12.9331 23.026 13.0297C22.5339 13.5123 21.8946 13.8019 21.2056 13.8019C20.2706 13.8019 19.4344 13.271 18.8931 12.4026H21.304C21.5009 12.4026 21.6485 12.2578 21.6485 12.0647V11.1959C21.6485 11.0029 21.5009 10.8581 21.304 10.8581H18.401V10.472C18.401 10.3272 18.401 10.2306 18.4502 10.0376H21.3532C21.5501 10.0376 21.6977 9.89276 21.6977 9.6997V8.83091C21.6977 8.63785 21.5501 8.49305 21.3532 8.49305H18.9423C19.4836 7.62426 20.3198 7.09374 21.2548 7.09374C21.8945 7.09374 22.5339 7.38333 23.0752 7.866C23.2228 8.01079 23.4197 8.01079 23.5181 7.866L24.5023 6.99721C24.5515 6.94894 24.6007 6.85241 24.6007 6.75588C24.6007 6.65935 24.5515 6.56281 24.5023 6.51455C23.6165 5.59749 22.4359 5.11523 21.2552 5.11523C19.2873 5.11523 17.4668 6.46627 16.7779 8.49316H15.7449C15.548 8.49316 15.4004 8.63796 15.4004 8.83102V9.69982C15.4004 9.89288 15.548 10.0377 15.7449 10.0377H16.4338V10.4721V10.8582H15.7449C15.548 10.8582 15.4004 11.003 15.4004 11.1961V12.0649C15.3512 12.2579 15.4988 12.4027 15.6957 12.4027L15.6957 12.4025Z" fill="black"/>
</svg>
