<svg width="44" height="43" viewBox="0 0 44 43" fill="none" xmlns="http://www.w3.org/2000/svg">
<path fill-rule="evenodd" clip-rule="evenodd" d="M21.0432 0.118138C21.3445 -0.0393793 21.7066 -0.0393793 22.0079 0.118138L37.1563 8.04275H42.025C42.5911 8.04275 43.05 8.49286 43.05 9.04811V13.0695C43.05 13.6248 42.5911 14.0749 42.025 14.0749H41V16.0856C41 16.6408 40.5411 17.0909 39.975 17.0909V33.176C40.5411 33.176 41 33.6261 41 34.1813V36.192H42.025C42.5911 36.192 43.05 36.6421 43.05 37.1974V41.2188C43.05 41.774 42.5911 42.2241 42.025 42.2241H1.025C0.458897 42.2241 0 41.774 0 41.2188V37.1974C0 36.6421 0.458906 36.192 1.025 36.192H2.05V34.1813C2.05 33.6261 2.50891 33.176 3.075 33.176V17.0909C2.5089 17.0909 2.05 16.6408 2.05 16.0856V14.0749H1.025C0.458897 14.0749 0 13.6248 0 13.0695V9.04811C0 8.49285 0.458906 8.04275 1.025 8.04275H5.89365L21.0432 0.118138ZM34.8508 17.0911H37.9258V33.1762H34.8508V17.0911ZM32.8008 33.1762C32.2347 33.1762 31.7758 33.6263 31.7758 34.1815V36.1922H11.2758V34.1815C11.2758 33.6263 10.8169 33.1762 10.2508 33.1762V17.0911C10.8169 17.0911 11.2758 16.641 11.2758 16.0858V14.0751H31.7758V16.0858C31.7758 16.641 32.2347 17.0911 32.8008 17.0911V33.1762ZM38.9509 36.1922H33.8259V35.1869H38.9509V36.1922ZM5.12569 33.1762H8.2007V17.0911H5.12569V33.1762ZM4.10069 36.1922H9.22569V35.1869H4.10069V36.1922ZM33.8253 14.0747H38.9503V15.08H33.8253V14.0747ZM4.10069 14.0747V15.08H9.22569V14.0747H4.10069ZM21.5255 2.14474L32.7999 8.04295H10.2501L21.5255 2.14474ZM2.04991 12.0642V10.0535H41.0001V12.0642H2.04991ZM2.04991 40.2142V38.2035H41.0001V40.2142H2.04991ZM14.3497 25.1339C14.3497 21.2472 17.5621 18.0964 21.5248 18.0964C25.4871 18.0964 28.6999 21.2472 28.6999 25.1339C28.6999 29.0203 25.4872 32.1711 21.5248 32.1711C17.5621 32.1711 14.3497 29.0203 14.3497 25.1339ZM21.5248 16.0857C16.4299 16.0857 12.2997 20.1367 12.2997 25.1339C12.2997 30.1308 16.4299 34.1818 21.5248 34.1818C26.6197 34.1818 30.7495 30.1308 30.7495 25.1339C30.7495 20.1367 26.6197 16.0857 21.5248 16.0857ZM21.5248 19.1017C22.0909 19.1017 22.5498 19.5518 22.5498 20.1071V20.2784C23.7439 20.6926 24.5998 21.8098 24.5998 23.1231C24.5998 23.6784 24.1409 24.1285 23.5748 24.1285C23.0087 24.1285 22.5498 23.6784 22.5498 23.1231C22.5498 22.5679 22.0909 22.1178 21.5248 22.1178C20.9587 22.1178 20.4998 22.5679 20.4998 23.1231C20.4998 23.6784 20.9587 24.1285 21.5248 24.1285C23.2232 24.1285 24.5998 25.4785 24.5998 27.1445C24.5998 28.4575 23.7438 29.5747 22.5498 29.9889V30.1602C22.5498 30.7155 22.0909 31.1656 21.5248 31.1656C20.9587 31.1656 20.4998 30.7155 20.4998 30.1602V29.9889C19.3055 29.5747 18.4498 28.4575 18.4498 27.1445C18.4498 26.5893 18.9087 26.1392 19.4748 26.1392C20.0409 26.1392 20.4998 26.5893 20.4998 27.1445C20.4998 27.6998 20.9587 28.1499 21.5248 28.1499C22.0909 28.1499 22.5498 27.6998 22.5498 27.1445C22.5498 26.5893 22.0909 26.1392 21.5248 26.1392C19.8265 26.1392 18.4498 24.7888 18.4498 23.1231C18.4498 21.8098 19.3055 20.6926 20.4998 20.2784V20.1071C20.4998 19.5518 20.9587 19.1017 21.5248 19.1017Z" fill="black"/>
</svg>
