<svg width="51" height="51" viewBox="0 0 51 51" fill="none" xmlns="http://www.w3.org/2000/svg">
<g clip-path="url(#clip0_21_33)">
<path d="M50.0513 25.1078C50.0513 11.2412 38.8468 3.62402e-08 25.0257 2.33464e-08C11.2045 1.04527e-08 3.63591e-08 11.2412 2.3423e-08 25.1078C1.24386e-08 36.8823 8.08029 46.7627 18.9805 49.4763L18.9805 32.7807L13.8202 32.7807L13.8202 25.1078L18.9805 25.1078L18.9805 21.8016C18.9805 13.2559 22.8354 9.29489 31.198 9.29489C32.7836 9.29489 35.5194 9.60723 36.6386 9.91857L36.6386 16.8734C36.048 16.8111 35.0219 16.78 33.7476 16.78C29.6444 16.78 28.0588 18.3397 28.0588 22.3941L28.0588 25.1078L36.2332 25.1078L34.8287 32.7807L28.0588 32.7807L28.0588 50.0317C40.4505 48.5303 50.0523 37.9449 50.0523 25.1078L50.0513 25.1078Z" fill="#0866FF"/>
<path d="M34.8277 32.7807L36.2322 25.1078L28.0578 25.1078L28.0578 22.3941C28.0578 18.3397 29.6434 16.78 33.7466 16.78C35.0209 16.78 36.047 16.8112 36.6376 16.8734L36.6376 9.9186C35.5184 9.60626 32.7826 9.29492 31.197 9.29492C22.8344 9.29492 18.9795 13.2559 18.9795 21.8016L18.9795 25.1078L13.8192 25.1078L13.8192 32.7807L18.9795 32.7807L18.9795 49.4764C20.9155 49.9584 22.9405 50.2155 25.0247 50.2155C26.0507 50.2155 27.0628 50.1523 28.0568 50.0318L28.0568 32.7807L34.8267 32.7807L34.8277 32.7807Z" fill="white"/>
</g>
<defs>
<clipPath id="clip0_21_33">
<rect width="50.0513" height="50.2155" fill="white"/>
</clipPath>
</defs>
</svg>
