<svg width="51" height="51" viewBox="0 0 51 51" fill="none" xmlns="http://www.w3.org/2000/svg">
<g clip-path="url(#clip0_23_25)">
<path d="M25.0667 4.51396C31.7642 4.51396 32.5573 4.54333 35.1913 4.66084C37.6392 4.76854 38.9611 5.17979 39.8423 5.5225C41.0075 5.97292 41.8496 6.52125 42.7211 7.39271C43.6023 8.27396 44.1409 9.10625 44.5913 10.2715C44.934 11.1527 45.3452 12.4844 45.4529 14.9225C45.5704 17.5663 45.5998 18.3594 45.5998 25.0471C45.5998 31.7446 45.5704 32.5377 45.4529 35.1717C45.3452 37.6196 44.934 38.9415 44.5913 39.8227C44.1409 40.9879 43.5925 41.83 42.7211 42.7015C41.8398 43.5827 41.0075 44.1213 39.8423 44.5717C38.9611 44.9144 37.6294 45.3256 35.1913 45.4334C32.5475 45.5509 31.7544 45.5802 25.0667 45.5802C18.3692 45.5802 17.576 45.5509 14.9421 45.4334C12.4942 45.3256 11.1723 44.9144 10.291 44.5717C9.12584 44.1213 8.28375 43.5729 7.41229 42.7015C6.53104 41.8202 5.9925 40.9879 5.54209 39.8227C5.19938 38.9415 4.78813 37.6098 4.68042 35.1717C4.56292 32.5279 4.53354 31.7348 4.53354 25.0471C4.53354 18.3496 4.56292 17.5565 4.68042 14.9225C4.78813 12.4746 5.19938 11.1527 5.54209 10.2715C5.9925 9.10625 6.54084 8.26417 7.41229 7.39271C8.29354 6.51146 9.12584 5.97292 10.291 5.5225C11.1723 5.17979 12.504 4.76854 14.9421 4.66084C17.576 4.54333 18.3692 4.51396 25.0667 4.51396ZM25.0667 2.33847e-08C18.2615 1.70361e-08 17.4096 0.029375 14.7365 0.146875C12.0731 0.264375 10.2421 0.695208 8.65584 1.31208C7.00104 1.95833 5.60084 2.81021 4.21042 4.21042C2.81021 5.60084 1.95833 7.00105 1.31208 8.64605C0.695209 10.2421 0.264375 12.0633 0.146875 14.7267C0.029375 17.4096 2.97333e-08 18.2615 2.33847e-08 25.0667C1.70361e-08 31.8719 0.029375 32.7238 0.146875 35.3969C0.264375 38.0602 0.695209 39.8913 1.31208 41.4775C1.95833 43.1323 2.81021 44.5325 4.21042 45.9229C5.60084 47.3134 7.00104 48.175 8.64605 48.8115C10.2421 49.4284 12.0633 49.8592 14.7267 49.9767C17.3998 50.0942 18.2517 50.1236 25.0569 50.1236C31.8621 50.1236 32.714 50.0942 35.3871 49.9767C38.0504 49.8592 39.8815 49.4284 41.4677 48.8115C43.1127 48.175 44.5129 47.3134 45.9034 45.9229C47.2938 44.5325 48.1554 43.1323 48.7919 41.4873C49.4088 39.8913 49.8396 38.07 49.9571 35.4067C50.0746 32.7336 50.104 31.8817 50.104 25.0765C50.104 18.2713 50.0746 17.4194 49.9571 14.7463C49.8396 12.0829 49.4088 10.2519 48.7919 8.66563C48.175 7.00104 47.3231 5.60084 45.9229 4.21042C44.5325 2.82 43.1323 1.95833 41.4873 1.32188C39.8913 0.705 38.07 0.274167 35.4067 0.156667C32.7238 0.0293751 31.8719 2.97333e-08 25.0667 2.33847e-08Z" fill="#000100"/>
<path d="M25.0667 12.1904C17.9579 12.1904 12.1906 17.9577 12.1906 25.0665C12.1906 32.1752 17.9579 37.9425 25.0667 37.9425C32.1754 37.9425 37.9427 32.1752 37.9427 25.0665C37.9427 17.9577 32.1754 12.1904 25.0667 12.1904ZM25.0667 33.4188C20.4548 33.4188 16.7144 29.6784 16.7144 25.0665C16.7144 20.4546 20.4548 16.7142 25.0667 16.7142C29.6785 16.7142 33.419 20.4546 33.419 25.0665C33.419 29.6784 29.6785 33.4188 25.0667 33.4188Z" fill="#000100"/>
<path d="M41.4579 11.6813C41.4579 13.3459 40.1067 14.6874 38.4519 14.6874C36.7873 14.6874 35.4459 13.3361 35.4459 11.6813C35.4459 10.0168 36.7971 8.67529 38.4519 8.67529C40.1067 8.67529 41.4579 10.0265 41.4579 11.6813Z" fill="#000100"/>
</g>
<defs>
<clipPath id="clip0_23_25">
<rect width="50.1334" height="50.1334" fill="white"/>
</clipPath>
</defs>
</svg>
