<svg width="38" height="46" viewBox="0 0 38 46" fill="none" xmlns="http://www.w3.org/2000/svg">
<path d="M37.6475 44.9073L34.056 12.6721C34.0068 12.3342 33.7607 12.0929 33.4162 12.0929H26.7252V7.79792C26.7252 3.7926 23.6258 0.414675 19.5913 0.0285685C14.9172 -0.357184 10.9812 3.21378 10.9812 7.70137V12.0929H4.28977C3.94531 12.0929 3.69926 12.3342 3.65005 12.6721L0.00932539 44.9073C-0.0398846 45.1969 0.107744 45.4383 0.402998 45.5348C0.501416 45.5831 0.599834 45.5831 0.649043 45.5831H36.9586C37.057 45.5831 37.1554 45.5831 37.2047 45.5348C37.5487 45.4383 37.6964 45.1969 37.6472 44.9073H37.6475ZM12.3096 7.70088C12.3096 3.88857 15.7043 0.848569 19.6402 1.28257C22.9858 1.66869 25.4458 4.46739 25.4458 7.74916V12.0441H12.3091L12.3096 7.70088ZM1.43653 44.3278L4.9297 13.3953L10.9817 13.3949V16.5318C10.9817 16.8214 11.1786 17.111 11.4738 17.1593C11.9167 17.2558 12.3104 16.918 12.3104 16.5318V13.3953H25.4471L25.4467 16.5318C25.3975 16.8697 25.6928 17.1593 26.0865 17.1593C26.4309 17.1593 26.7262 16.8697 26.7754 16.5318V13.3953H32.8271L36.3202 44.3279L1.43653 44.3278Z" fill="black"/>
<path d="M23.5762 27.3424H20.3783L21.9034 20.0074C21.9526 19.6695 21.7558 19.3317 21.3621 19.2834C21.1161 19.2351 20.8208 19.3799 20.7224 19.573L13.6869 30.7204C13.5393 30.9617 13.5885 31.2996 13.7854 31.4926C13.8838 31.5892 14.0806 31.6374 14.2283 31.6374H17.5738L16.6392 39.2134C16.5899 39.4547 16.7376 39.7443 16.9836 39.8891C17.082 39.9374 17.1805 39.9857 17.2789 39.9857C17.5249 39.9857 17.7218 39.8409 17.8202 39.6478L24.1178 28.259C24.2655 27.9694 24.2163 27.6316 23.921 27.4385C23.8222 27.342 23.6746 27.342 23.5762 27.342L23.5762 27.3424ZM18.3119 36.077L18.9516 31.0584C19.0009 30.7688 18.8532 30.5275 18.558 30.3827C18.4596 30.3344 18.3611 30.3344 18.3119 30.3344H15.3598L19.9355 23.096L18.9513 27.7288C18.9021 28.0184 19.0497 28.308 19.2958 28.4045C19.3942 28.4528 19.4926 28.4528 19.591 28.4528H22.494L18.3119 36.077Z" fill="black"/>
</svg>
