<svg width="51" height="51" viewBox="0 0 51 51" fill="none" xmlns="http://www.w3.org/2000/svg">
<path d="M35.8799 18.0972C39.1037 20.4099 43.0532 21.7707 47.3187 21.7707L47.3187 13.5332C46.5115 13.5334 45.7063 13.4489 44.9165 13.281L44.9165 19.7651C40.6513 19.7651 36.7024 18.4043 33.4776 16.0917L33.4776 32.902C33.4776 41.3113 26.6847 48.128 18.3058 48.128C15.1794 48.128 12.2735 47.1794 9.85962 45.5526C12.6147 48.3797 16.4568 50.1334 20.7075 50.1334C29.087 50.1334 35.8802 43.3168 35.8802 34.9071L35.8802 18.0972L35.8799 18.0972ZM38.8433 9.78655C37.1957 7.98015 36.1139 5.64571 35.8799 3.06489L35.8799 2.00537L33.6034 2.00537C34.1764 5.2856 36.1309 8.08803 38.8433 9.78655ZM15.1593 39.0995C14.2388 37.8883 13.7413 36.4065 13.7436 34.883C13.7436 31.0369 16.8506 27.9184 20.6838 27.9184C21.3982 27.9182 22.1083 28.028 22.7891 28.2448L22.7891 19.8232C21.9935 19.7138 21.1905 19.6673 20.3879 19.6844L20.3879 26.2393C19.7066 26.0225 18.9961 25.9124 18.2816 25.9131C14.4484 25.9131 11.3415 29.0312 11.3415 32.8779C11.3415 35.5977 12.8945 37.9525 15.1593 39.0995Z" fill="#FF004F"/>
<path d="M33.4775 16.0915C36.7022 18.4041 40.6511 19.7649 44.9164 19.7649L44.9164 13.2808C42.5355 12.7719 40.4279 11.5233 38.8432 9.78655C36.1306 8.08786 34.1763 5.28543 33.6033 2.00537L27.6236 2.00537L27.6236 34.9067C27.6101 38.7424 24.5084 41.8481 20.6834 41.8481C18.4294 41.8481 16.4269 40.7699 15.1587 39.0995C12.8941 37.9525 11.3411 35.5975 11.3411 32.878C11.3411 29.0318 14.4479 25.9133 18.2811 25.9133C19.0156 25.9133 19.7234 26.028 20.3874 26.2395L20.3874 19.6845C12.1557 19.8552 5.53534 26.6053 5.53534 34.9069C5.53534 39.051 7.18396 42.8078 9.85968 45.5528C12.2736 47.1794 15.1794 48.1281 18.3058 48.1281C26.6849 48.1281 33.4777 41.3111 33.4777 32.902L33.4777 16.0915L33.4775 16.0915Z" fill="black"/>
<path d="M44.9164 13.2807L44.9164 11.5275C42.7695 11.5308 40.6647 10.9274 38.8432 9.78631C40.4557 11.558 42.579 12.7795 44.9164 13.2807ZM33.6033 2.0053C33.5487 1.69182 33.5067 1.37627 33.4776 1.05951L33.4776 2.83081e-08L25.2213 2.06058e-08L25.2213 32.9017C25.2081 36.7368 22.1066 39.8426 18.2812 39.8426C17.1581 39.8426 16.0978 39.575 15.1588 39.0996C16.427 40.7698 18.4294 41.8479 20.6834 41.8479C24.5081 41.8479 27.6103 38.7425 27.6237 34.9068L27.6237 2.0053L33.6033 2.0053ZM20.3878 19.6845L20.3878 17.818C19.698 17.7234 19.0024 17.6759 18.306 17.6762C9.92622 17.6761 3.13333 24.493 3.13333 32.9017C3.13333 38.1735 5.80306 42.8195 9.85991 45.5524C7.18419 42.8076 5.53557 39.0506 5.53557 34.9067C5.53557 26.6052 12.1557 19.8551 20.3878 19.6845Z" fill="#00F2EA"/>
</svg>
