<svg width="51" height="27" viewBox="0 0 51 27" fill="none" xmlns="http://www.w3.org/2000/svg">
<path d="M5.93182 26.5398H-2.71946e-06L9.03835 0.357953H16.1719L25.1974 26.5398H19.2656L12.7074 6.34091H12.5028L5.93182 26.5398ZM5.56108 16.2486H19.5724V20.5696H5.56108V16.2486ZM44.479 8.82102C44.3001 8.19886 44.0486 7.64915 43.7248 7.17187C43.4009 6.68608 43.0046 6.27699 42.5359 5.9446C42.0756 5.60369 41.5472 5.34375 40.9506 5.16477C40.3626 4.9858 39.7106 4.89631 38.9947 4.89631C37.6566 4.89631 36.4805 5.22869 35.4663 5.89346C34.4606 6.55824 33.6765 7.52557 33.114 8.79545C32.5515 10.0568 32.2702 11.5994 32.2702 13.4233C32.2702 15.2472 32.5472 16.7983 33.1012 18.0767C33.6552 19.3551 34.4393 20.331 35.4535 21.0043C36.4677 21.669 37.6651 22.0014 39.0458 22.0014C40.2986 22.0014 41.3683 21.7798 42.2546 21.3366C43.1495 20.8849 43.8313 20.25 44.3001 19.4318C44.7773 18.6136 45.016 17.6463 45.016 16.5298L46.141 16.696H39.391V12.5284H50.3469V15.8267C50.3469 18.1278 49.8611 20.1051 48.8896 21.7585C47.918 23.4034 46.5799 24.6733 44.8754 25.5682C43.1708 26.4545 41.2191 26.8977 39.0202 26.8977C36.5657 26.8977 34.4094 26.3565 32.5515 25.2741C30.6935 24.1832 29.2447 22.6364 28.2049 20.6335C27.1736 18.6222 26.658 16.2358 26.658 13.4744C26.658 11.3523 26.9648 9.46023 27.5785 7.79829C28.2006 6.12784 29.07 4.71307 30.1864 3.55398C31.3029 2.39488 32.6026 1.51278 34.0856 0.907669C35.5685 0.302555 37.1751 -1.66893e-06 38.9052 -1.66893e-06C40.3881 -1.66893e-06 41.7688 0.217328 43.0472 0.651988C44.3256 1.07812 45.4592 1.68324 46.4478 2.46733C47.445 3.25142 48.2589 4.18466 48.8896 5.26704C49.5202 6.34091 49.9251 7.52557 50.104 8.82102H44.479Z" fill="white"/>
</svg>
