<svg width="127" height="44" viewBox="0 0 127 44" fill="none" xmlns="http://www.w3.org/2000/svg">
<path d="M22.0306 2.58838C16.9341 2.75812 12.1084 4.92095 8.59389 8.61064C5.07937 12.3003 3.15746 17.2214 3.24247 22.3129C3.32747 27.4045 5.41257 32.2588 9.04829 35.8295C12.684 39.4001 17.5792 41.4011 22.6785 41.4011C27.7779 41.4011 32.6731 39.4001 36.3088 35.8295C39.9445 32.2588 42.0296 27.4045 42.1146 22.3129C42.1996 17.2214 40.2777 12.3003 36.7632 8.61064C33.2487 4.92095 28.423 2.75812 23.3265 2.58838H22.0306ZM49.2449 2.58838C44.1483 2.75812 39.3227 4.92095 35.8082 8.61064C32.2937 12.3003 30.3718 17.2214 30.4568 22.3129C30.5418 27.4045 32.6269 32.2588 36.2626 35.8295C39.8983 39.4001 44.7935 41.4011 49.8928 41.4011C54.9922 41.4011 59.8874 39.4001 63.5231 35.8295C67.1588 32.2588 69.2439 27.4045 69.3289 22.3129C69.4139 17.2214 67.492 12.3003 63.9775 8.61064C60.463 4.92095 55.6373 2.75812 50.5408 2.58838H49.2449ZM76.4592 2.58838C71.3626 2.75812 66.537 4.92095 63.0225 8.61064C59.5079 12.3003 57.586 17.2214 57.671 22.3129C57.756 27.4045 59.8411 32.2588 63.4769 35.8295C67.1126 39.4001 72.0078 41.4011 77.1071 41.4011C82.2065 41.4011 87.1016 39.4001 90.7374 35.8295C94.3731 32.2588 96.4582 27.4045 96.5432 22.3129C96.6282 17.2214 94.7063 12.3003 91.1918 8.61064C87.6772 4.92095 82.8516 2.75812 77.7551 2.58838H76.4592ZM103.673 2.58838C98.5769 2.75812 93.7513 4.92095 90.2368 8.61064C86.7222 12.3003 84.8003 17.2214 84.8853 22.3129C84.9703 27.4045 87.0554 32.2588 90.6912 35.8295C94.3269 39.4001 99.222 41.4011 104.321 41.4011C109.421 41.4011 114.316 39.4001 117.952 35.8295C121.587 32.2588 123.672 27.4045 123.757 22.3129C123.842 17.2214 121.921 12.3003 118.406 8.61064C114.892 4.92095 110.066 2.75812 104.969 2.58838H103.673Z" stroke="black" stroke-width="2.88235"/>
</svg>
