<svg width="64" height="64" viewBox="0 0 64 64" fill="none" xmlns="http://www.w3.org/2000/svg">
<path d="M32 0C14.3274 0 0 14.3274 0 32C0 49.6726 14.3274 64 32 64C49.6726 64 64 49.6726 64 32C64 14.3274 49.6726 0 32 0ZM61.9191 32C61.9191 48.523 48.5249 61.9191 32 61.9191C15.4751 61.9191 2.0809 48.523 2.0809 32C2.0809 15.477 15.477 2.0809 32 2.0809C48.523 2.0809 61.9191 15.477 61.9191 32Z" fill="#6F6F6F"/>
<path d="M32.0001 13.0371V14.0768C41.8821 14.0768 49.9234 22.1162 49.9234 32.0001H50.9631C50.9631 21.5278 42.4724 13.0371 32.0001 13.0371ZM32.0001 49.9233C22.1182 49.9233 14.0769 41.8839 14.0769 32.0001H13.0371C13.0371 42.4724 21.5278 50.963 32.0001 50.963" fill="#6F6F6F"/>
<path d="M47.3218 18.4962C47.756 18.9591 48.3819 19.7058 48.7335 20.1595L55.2072 16.0787C54.8839 15.6587 54.3689 15.0202 53.9835 14.5703L49.8838 17.2622L49.6038 17.5012L49.8124 17.1988L51.6226 13.6108L50.3425 12.3396L46.7278 14.1373L46.4233 14.3445L46.6657 14.0663L49.3782 9.99675C48.9007 9.59353 48.4421 9.22391 47.8575 8.77588L43.7484 15.1995C44.2691 15.5971 44.9552 16.1814 45.3932 16.579L49.2617 14.5853L49.5098 14.4042L49.3274 14.6506L47.3218 18.4962Z" fill="#6F6F6F"/>
<path d="M32.6317 10.3553L34.4005 6.42018L34.5133 6.0711L34.4814 6.43512L34.6675 11.6938C35.2878 11.7517 35.9288 11.8376 36.5603 11.9421L36.2728 4.15392C35.3893 4.05685 34.5096 3.98777 33.6299 3.95044L31.8873 8.24589L31.8253 8.56511L31.7633 8.24589L30.0227 3.95044C29.1429 3.98777 28.2632 4.05685 27.3798 4.15392L27.0922 11.9421C27.7237 11.8376 28.3647 11.7536 28.985 11.6938L29.1711 6.43512L29.1392 6.0711L29.252 6.42018L31.0208 10.3553H32.6317Z" fill="#6F6F6F"/>
<path d="M18.3249 16.5622C19.3475 15.4926 19.9265 14.2568 18.9039 13.077C18.3475 12.4367 17.4133 12.2967 16.6388 12.6121L16.5617 12.642L16.5862 12.5748C16.7008 12.2705 16.7741 11.2998 15.9414 10.6296C15.5354 10.3029 15.026 10.1816 14.511 10.2339C13.5504 10.3309 12.8117 10.9824 10.8004 13.2095C10.1932 13.8815 9.30974 14.9419 8.77966 15.6288L14.3042 20.8334C16.135 18.821 16.8813 18.0725 18.3249 16.5622ZM11.1162 15.2891C12.229 13.9375 13.4113 12.7111 13.947 12.2257C14.1162 12.0726 14.3004 11.9196 14.5241 11.8598C14.8869 11.7609 15.261 12.0166 15.3456 12.3863C15.4301 12.7577 15.1952 13.1106 14.9339 13.4018C14.3455 14.0608 12.1876 16.3028 12.1876 16.3028L11.1162 15.2891ZM13.2797 17.3276C13.2797 17.3276 15.3813 15.1211 16.0674 14.4154C16.3399 14.1354 16.5147 13.9655 16.7027 13.8741C16.9452 13.7565 17.2102 13.7322 17.4471 13.889C17.6802 14.044 17.7873 14.3109 17.7291 14.576C17.6595 14.8915 17.4001 15.192 17.1858 15.4216C16.8963 15.7297 14.4038 18.3786 14.4 18.3823L13.2797 17.3276Z" fill="#6F6F6F"/>
<path d="M32.0001 13.0371V32.0001H13.0371C13.0371 21.5202 21.5203 13.0371 32.0001 13.0371Z" fill="#0066B1"/>
<path d="M50.963 32C50.963 42.4798 42.4798 50.963 32 50.963V32H50.963Z" fill="#0066B1"/>
</svg>
