<svg width="84" height="84" viewBox="0 0 84 84" fill="none" xmlns="http://www.w3.org/2000/svg">
<g clip-path="url(#clip0_88_608)">
<mask id="mask0_88_608" style="mask-type:alpha" maskUnits="userSpaceOnUse" x="0" y="0" width="84" height="85">
<path d="M84.0001 84.2015H6.10352e-05V0.0124512H84.0001V84.2015Z" fill="black"/>
</mask>
<g mask="url(#mask0_88_608)">
<path fill-rule="evenodd" clip-rule="evenodd" d="M40.1185 83.2038C28.3738 78.2264 18.1732 70.0691 11.3942 60.2377C4.63148 50.4348 1.07742 39.0813 0.207891 24.5045C-0.0690484 19.854 -0.0690484 14.0532 0.206402 6.77357L0.331472 3.45122L3.9302 2.9018C16.5935 0.976761 29.4027 0 42.0005 0C54.5982 0 67.406 0.976761 80.0678 2.9018L83.6665 3.45122L83.793 6.77357C84.07 14.0545 84.07 19.8554 83.7916 24.5045C82.9205 39.0813 79.368 50.4348 72.6053 60.2377C65.8277 70.0691 55.6241 78.2264 43.881 83.2038L42.0005 84.0001L40.1185 83.2038Z" fill="black"/>
</g>
<path fill-rule="evenodd" clip-rule="evenodd" d="M42.0003 2.39502C29.3004 2.39502 16.1177 3.37959 2.73788 5.47617C2.53813 10.3459 2.31044 17.8731 2.69293 24.2606C3.54479 38.5018 6.99783 49.5555 13.5601 59.0475C20.1027 68.5118 30.2347 76.6497 42.0003 81.4828C53.766 76.6497 63.897 68.5118 70.4396 59.0475C77.0027 49.5555 80.4547 38.5018 81.3074 24.2606C81.6881 17.8731 81.4616 10.3459 81.2618 5.47617C67.882 3.37959 54.7003 2.39502 42.0003 2.39502ZM42.0003 3.76698C54.5193 3.76698 67.231 4.73356 79.7984 6.64125C80.0743 13.8657 80.0741 19.6138 79.8 24.1864C78.9625 38.1851 75.5829 49.0312 69.1622 58.318C62.7424 67.604 53.1148 75.2746 42.0003 79.9742C30.885 75.2746 21.2583 67.604 14.8385 58.318C8.41774 49.0312 5.03729 38.1851 4.20066 24.1864C3.92656 19.6138 3.92641 13.8657 4.2023 6.64125C16.7697 4.73356 29.4804 3.76698 42.0003 3.76698Z" fill="white"/>
<path fill-rule="evenodd" clip-rule="evenodd" d="M15.7339 10.3015C15.6106 10.2987 15.4793 10.304 15.3405 10.317C13.4809 10.4937 11.624 10.6882 9.76892 10.9015V15.8934C10.0905 15.8559 10.413 15.8201 10.7346 15.7842V14.2398C12.2681 14.0688 13.8043 13.9108 15.3405 13.765C16.4512 13.66 17.072 13.2376 17.072 12.1922V11.6271C17.072 10.733 16.5968 10.3208 15.7339 10.3015ZM15.6273 11.0952C15.8772 11.0716 16.128 11.2444 16.128 11.4731V12.4842C16.128 12.7016 15.8772 12.9095 15.6273 12.9339C13.9952 13.0862 12.364 13.2539 10.7346 13.4347V11.5969C12.364 11.4153 13.9952 11.2483 15.6273 11.0952Z" fill="white"/>
<path fill-rule="evenodd" clip-rule="evenodd" d="M40.2183 9.06362C41.957 9.05223 43.6956 9.05792 45.4334 9.07909V9.88353C43.5756 9.86155 41.7169 9.85666 39.8582 9.8705C39.6065 9.87294 39.3548 10.0708 39.3548 10.2996V12.8008C39.3548 13.0296 39.6065 13.256 39.8582 13.2535C41.5252 13.2405 43.1913 13.2429 44.8583 13.26V11.9109C43.8909 11.9011 42.9235 11.8963 41.957 11.8971V11.0918C43.2397 11.0918 44.5224 11.1008 45.8051 11.1179V14.0759C44.0029 14.0514 42.2006 14.0449 40.3984 14.0547C39.0789 14.0629 38.408 13.856 38.408 12.6917V10.5162C38.408 9.42921 39.0073 9.07177 40.2183 9.06363V9.06362Z" fill="white"/>
<path fill-rule="evenodd" clip-rule="evenodd" d="M59.0484 9.58547C58.0091 9.58815 57.5416 9.88695 57.5416 10.8665V13.0956C57.5416 14.2819 58.2123 14.5135 59.5291 14.5941C60.7383 14.669 61.9458 14.7518 63.1542 14.8422C64.4575 14.9399 65.1394 14.7379 65.1394 13.6167V11.3876C65.1394 10.2453 64.35 9.93991 63.1542 9.85035C61.9458 9.75916 60.7383 9.67703 59.5291 9.60131C59.357 9.59073 59.1968 9.58508 59.0484 9.58547ZM58.991 10.3738C60.5594 10.4675 62.126 10.575 63.6927 10.6955C63.9435 10.7151 64.1944 10.9307 64.1944 11.1912V13.661C64.1944 13.889 63.9435 14.0982 63.6927 14.0786C62.126 13.9581 60.5594 13.8505 58.991 13.7561C58.7034 13.7381 58.4873 13.4981 58.4873 13.2693V10.8005C58.4873 10.5391 58.7034 10.3559 58.991 10.3738Z" fill="white"/>
<path fill-rule="evenodd" clip-rule="evenodd" d="M36.0354 9.12085V12.7319C36.0354 13.8742 35.3753 14.125 34.0451 14.1624C32.8869 14.195 31.7287 14.2341 30.5705 14.2813C29.3361 14.3318 28.5819 14.1184 28.5819 12.9875V9.37651L29.5278 9.33255V13.0958C29.5278 13.3246 29.7437 13.511 30.0303 13.4988C31.5486 13.4345 33.066 13.3824 34.5843 13.3425C34.8728 13.3352 35.0645 13.1349 35.0645 12.9061V9.14284C35.3878 9.13469 35.7112 9.12737 36.0354 9.12086V9.12085Z" fill="white"/>
<path fill-rule="evenodd" clip-rule="evenodd" d="M48.1728 9.12524C50.5053 9.17572 52.837 9.25552 55.1686 9.36462V10.1691C53.1532 10.0754 51.1368 10.003 49.1196 9.95248V11.1811C50.9138 11.2267 52.7071 11.2886 54.4995 11.3676V12.1728C52.7071 12.0938 50.9138 12.0311 49.1196 11.9864V13.3347C51.1368 13.3852 53.1532 13.4576 55.1686 13.5521V14.3565C52.837 14.2482 50.5053 14.1684 48.1728 14.1171V9.12524Z" fill="white"/>
<path fill-rule="evenodd" clip-rule="evenodd" d="M26.209 9.49902V10.3035C24.1945 10.4166 22.1808 10.551 20.169 10.7065V11.9359C21.9587 11.7967 23.7493 11.6754 25.5408 11.5712V12.3764C23.7493 12.4806 21.9587 12.602 20.169 12.7404V14.0895C22.1808 13.9332 24.1945 13.7988 26.209 13.6865V14.4909C23.8792 14.6212 21.5511 14.7808 19.2239 14.9689V9.97615C21.5511 9.78807 23.8792 9.6293 26.209 9.49902Z" fill="white"/>
<path fill-rule="evenodd" clip-rule="evenodd" d="M66.8922 10.155C69.3411 10.3716 71.7883 10.6208 74.231 10.9008V11.7061C73.1749 11.5848 72.1171 11.4692 71.0583 11.3601V15.5475C70.7367 15.5141 70.4151 15.4816 70.0918 15.449V11.2615C69.0267 11.1549 67.959 11.0547 66.8922 10.9603V10.155Z" fill="white"/>
<path fill-rule="evenodd" clip-rule="evenodd" d="M34.4893 19.7081C38.986 19.349 45.0708 19.2513 50.8834 19.6511C51.2139 19.6739 51.5355 19.7447 51.8409 19.862C53.7453 20.5899 57.124 22.1825 60.8808 24.1357C61.0465 24.222 61.2024 24.323 61.3457 24.4378C62.3409 25.2349 64.8624 27.5798 64.8624 27.5798L64.076 27.4381C63.9658 27.4186 63.8628 27.3795 63.7696 27.3225C62.1788 26.3512 59.8561 25.0867 57.9096 24.1952C57.6785 24.0901 57.4286 24.0226 57.1715 23.9981C56.2247 23.9061 54.9447 23.8255 54.1072 23.7946C53.6942 23.7791 53.413 23.7164 53.009 23.53C52.2368 23.1742 50.3665 22.4031 49.4349 22.0799C49.0363 21.9414 48.833 21.9089 48.4424 21.9146C46.8417 21.9357 43.1951 22.0416 41.3329 22.1466C41.2684 22.1499 41.2066 22.1474 41.1439 22.1385L40.2562 22.0123C42.7732 21.6182 48.9951 21.1142 51.5704 20.9913L50.5224 20.6729C50.3199 20.6118 50.1094 20.5793 49.8953 20.5744C49.3363 20.5623 48.0931 20.5397 46.4793 20.5377L45.9281 20.5379C43.4836 20.5422 40.3387 20.5967 37.4382 20.795C37.1847 20.8121 36.9374 20.8675 36.7045 20.9611C35.5329 21.4289 32.6758 22.8369 29.8105 24.2832L29.1743 24.6048C28.4335 24.98 27.7005 25.3532 27.0045 25.7088C27.0045 25.7088 27.3619 25.2911 27.4308 25.2096C27.4917 25.1388 27.5106 25.1258 27.593 25.0769C27.7081 25.0083 28.1012 24.773 28.4975 24.5341L28.7911 24.3569C29.0291 24.213 29.2414 24.0836 29.3612 24.0087C29.4203 23.9721 29.4579 23.946 29.5323 23.8955C30.3949 23.3044 31.7564 22.2622 32.568 21.6166C32.7516 21.4708 32.9074 21.3015 33.0355 21.1126C33.298 20.7266 33.5846 20.3081 33.7611 20.0761C33.9116 19.875 34.1687 19.7341 34.4893 19.7081V19.7081Z" fill="white"/>
<path fill-rule="evenodd" clip-rule="evenodd" d="M36.6679 23.6575C36.7709 23.6567 36.8354 23.7576 36.7843 23.8382L34.6112 27.2392C34.4903 27.4395 34.2879 27.5885 34.0478 27.6544L29.973 28.813C29.5001 28.9433 29.1006 29.0133 28.6079 29.0475C27.7041 29.1094 25.0195 29.1859 25.0195 29.1859L25.0786 29.0703C25.1064 29.0158 25.1557 28.9726 25.2166 28.949L26.4868 28.4588C26.5817 28.4222 26.665 28.366 26.7286 28.2936L28.6903 26.0985C28.7951 25.9812 28.9322 25.8689 29.0782 25.7988C30.3743 25.1792 32.6791 24.2486 34.2932 23.7584C34.4455 23.712 34.6506 23.6827 34.811 23.6811L36.6679 23.6575Z" fill="white"/>
<path fill-rule="evenodd" clip-rule="evenodd" d="M26.5265 29.768C26.6116 29.7615 26.6922 29.8046 26.7253 29.8755C26.8373 30.1124 26.8069 30.377 26.6985 30.6034C26.6564 30.6954 26.5265 30.7849 26.4199 30.8061L25.5286 30.986C25.4749 30.9966 25.4256 30.9575 25.4292 30.9079L25.5125 29.9569C25.5188 29.8926 25.5743 29.8413 25.6451 29.8364L26.5265 29.768Z" fill="white"/>
<path fill-rule="evenodd" clip-rule="evenodd" d="M46.2915 25.7522C46.425 25.7311 46.562 25.7482 46.6847 25.8011L47.6154 26.2058C47.7068 26.2456 47.774 26.3214 47.7982 26.4126C47.9245 26.8962 48.0794 27.537 48.1833 28.0817C48.2254 28.308 48.1788 28.5393 48.0526 28.7387C47.6674 29.347 46.8764 30.4413 46.4339 31.0291C46.3354 31.161 46.3238 31.3206 46.3542 31.4777C46.5549 32.4857 47.3915 36.0055 47.3915 36.0055L46.8648 35.5699C46.76 35.482 46.691 35.3892 46.6462 35.2679C46.2718 34.2721 45.5713 32.1918 45.2489 31.1797C45.1969 31.0128 45.2363 30.8345 45.3572 30.7018C45.9063 30.096 46.7062 29.1271 47.1738 28.5132C47.3046 28.3406 47.3476 28.1501 47.2706 28.0076C47.1631 27.8073 46.9821 27.5028 46.8084 27.2268C46.7618 27.1502 46.6838 27.0932 46.5916 27.0656L45.9601 26.8815C45.8499 26.8498 45.7317 26.8514 45.6224 26.8873C44.2465 27.3408 42.3959 27.9946 41.2637 28.4212C41.0979 28.4839 41.0299 28.4888 40.8292 28.4611C40.5014 28.4171 39.5465 28.2616 39.078 28.1818C38.9938 28.1672 38.9517 28.0809 38.9947 28.0133L39.5501 27.1388C39.6253 27.0208 39.7498 26.9369 39.8967 26.9068C41.6829 26.5371 44.045 26.1121 46.2915 25.7523V25.7522Z" fill="white"/>
<path fill-rule="evenodd" clip-rule="evenodd" d="M26.8714 26.6685L26.5059 27.0772C26.4853 27.0951 26.4656 27.1122 26.445 27.1309C26.1235 27.3467 24.77 28.2887 24.4036 28.5525C24.2997 28.6274 24.2585 28.6926 24.2343 28.8106C24.1519 29.2275 24.0149 30.0197 23.9746 30.4586C23.9629 30.5872 23.902 30.6507 23.7578 30.7037C23.1299 30.9357 22.3855 31.18 21.7836 31.399C21.6546 31.4454 21.6187 31.4633 21.5426 31.5162C21.4826 31.5586 20.6827 32.2075 20.6827 32.2075C20.6827 32.2075 22.4213 31.8183 23.0591 31.6872C23.2114 31.6563 23.2768 31.6644 23.4174 31.7247C23.5491 31.7801 23.7685 31.859 23.8841 31.8973C24.0614 31.9567 24.1555 31.9543 24.3517 31.9152C25.0701 31.7695 26.2784 31.5089 26.9216 31.3567C27.2557 31.2777 27.4384 31.1955 27.7215 31.0155C28.0296 30.8209 28.8098 30.2892 28.8098 30.2892C28.8098 30.2892 28.7955 30.3829 28.7847 30.435C28.7767 30.4798 28.7588 30.505 28.7265 30.54C28.568 30.7134 28.2903 30.996 28.1523 31.1254C27.8361 31.4226 27.6471 31.5285 27.2503 31.6791C25.423 32.3712 22.3004 33.4459 19.958 34.1828C19.8048 34.2316 19.7386 34.2715 19.6248 34.3774C19.5012 34.4914 19.3364 34.6575 19.3364 34.6575C19.3364 34.6575 21.2461 34.7837 21.8292 34.8447C22.0182 34.8643 22.1535 34.9204 22.2977 35.0336C22.7769 35.4081 24.3633 36.8924 24.8381 37.4078C24.8381 37.4078 20.328 38.0893 18.2382 38.5608C17.9802 38.6186 17.8512 38.7676 17.793 38.9556C17.6201 39.5077 17.2125 41.2826 17.2125 41.2826C17.2125 41.2826 17.0674 41.2403 16.865 41.1345C16.7261 41.062 16.6554 41.0017 16.5031 40.8552C16.0087 40.3805 15.1962 39.4718 14.8057 38.9451C14.691 38.7895 14.6426 38.5917 14.786 38.4329C15.2096 37.9591 16.0606 37.0944 16.53 36.6498C16.5801 36.6018 16.6437 36.5179 16.7109 36.3974C16.8689 36.1123 17.0771 35.3902 17.1496 35.1294L17.1727 35.0451L17.1758 35.0336C17.1758 35.0336 17.1713 35.0361 17.1632 35.0408L17.0775 35.0898C16.9613 35.1562 16.7736 35.2635 16.693 35.3096C16.5721 35.3796 16.5389 35.4098 16.4888 35.5058C16.4126 35.6508 16.2792 35.8796 16.1779 36.0383C16.1448 36.0904 16.0561 36.171 16.0086 36.2044C15.4094 36.6205 14.7474 37.0675 14.2763 37.3687C14.244 37.3891 14.2028 37.3801 14.175 37.3557C14.115 37.3012 13.8633 37.0414 13.8185 36.9804C13.7809 36.9291 13.7638 36.881 13.7638 36.8192C13.763 36.7109 13.7746 36.5203 13.7863 36.3787C13.8006 36.2109 13.8535 36.1312 14.0783 35.9195C14.33 35.6825 14.6041 35.4334 14.8925 35.1777C15.5993 34.6371 17.3836 33.3213 20.5698 31.2549C20.6298 31.2158 20.6844 31.1702 20.7283 31.1156C21.0634 30.7053 22.0137 29.5849 22.2484 29.3187C22.2816 29.2812 22.3183 29.2462 22.3604 29.2161C22.7357 28.9466 22.9211 28.8302 23.3018 28.612C24.1895 28.1039 25.9085 27.1773 26.8714 26.6685L26.8714 26.6685Z" fill="white"/>
<path fill-rule="evenodd" clip-rule="evenodd" d="M19.6678 40.6311L19.2746 43.0973L17.9373 41.6708C18.1809 41.1913 18.893 40.7386 19.6678 40.6311Z" fill="white"/>
<path fill-rule="evenodd" clip-rule="evenodd" d="M28.4758 41.9395C27.8094 42.936 27.0131 43.9945 26.4111 44.6556C26.3323 44.7419 26.2275 44.8087 26.1084 44.8494C25.45 45.0733 24.3527 45.4104 23.5447 45.6343L28.4758 41.9395Z" fill="white"/>
<path fill-rule="evenodd" clip-rule="evenodd" d="M56.9071 25.9277C57.26 25.8097 57.647 25.8178 57.9936 25.9505C60.6827 26.9764 65.2044 29.3897 67.7179 31.0898C67.9606 31.2543 68.0574 31.3674 68.121 31.6329C68.7113 34.0722 68.9352 37.8428 68.5635 41.0174C68.5366 41.2454 68.4865 41.3822 68.3557 41.6256C66.763 44.5852 64.9706 47.3706 63.0842 49.5193L63.0879 49.4842C63.1125 49.2554 63.2479 47.9652 63.2552 47.2672C63.2561 47.1883 63.2964 47.1158 63.3654 47.0678C63.7156 46.8202 64.1967 46.4685 64.469 46.2544C64.6015 46.1501 64.675 46.072 64.744 45.971C65.5125 44.8425 66.8866 42.4797 67.4402 41.0581C67.5754 40.7112 67.6292 40.344 67.596 39.9768C67.4187 37.9959 67.0765 35.2512 66.5668 33.4599C66.4799 33.1546 66.2578 32.8965 65.9488 32.7524C65.5089 32.5472 64.6463 32.1898 62.6819 31.4741C62.4096 31.3748 62.1552 31.2372 61.9313 31.0662C60.6432 30.0826 58.6296 28.6081 57.3764 27.7597C57.0101 27.5114 56.5425 27.421 56.0964 27.513C55.1836 27.7011 54.0218 27.9632 53.3679 28.1245C53.1458 28.179 53.058 28.1839 52.8287 28.1595C52.7093 28.1469 52.5549 28.1331 52.3928 28.1197L52.1471 28.1001C51.8616 28.0779 51.5937 28.0592 51.4888 28.0519L51.4421 28.0487C53.5731 27.1393 55.6234 26.3544 56.907 25.9277L56.9071 25.9277Z" fill="white"/>
<path fill-rule="evenodd" clip-rule="evenodd" d="M25.179 38.4418C25.3904 38.3799 25.6152 38.3726 25.8302 38.4198C26.7994 38.6315 28.8506 39.0883 30.4012 39.449C30.6189 39.4995 30.8903 39.6843 31.0058 39.8593L31.3435 40.3698C31.4618 40.549 31.4698 40.7688 31.365 40.9544C31.0831 41.451 30.6812 42.1234 30.2562 42.8168L29.9347 43.3383C29.3428 44.2927 28.7534 45.2135 28.4189 45.698C28.1985 46.018 28.0758 46.1597 27.6835 46.2859C26.158 46.7736 24.2635 47.3565 23.1375 47.6879C22.9073 47.7555 22.8294 47.8825 22.8742 48.1146C22.9548 48.5371 23.2146 49.9718 23.314 50.3903C23.3507 50.545 23.4869 50.6679 23.7395 50.6239C24.405 50.5091 26.1768 50.1151 26.1768 50.1151C26.1768 50.1151 25.6546 50.5539 25.342 50.8128C25.2847 50.8617 25.2184 50.8975 25.144 50.9195C24.6612 51.0661 23.4824 51.3665 23.1152 51.4398C22.8285 51.496 22.6458 51.3934 22.5723 51.0986C22.5723 51.0986 22.0698 49.1543 21.888 48.4932C21.8593 48.3922 21.8306 48.3051 21.7957 48.2058C21.6596 47.8231 21.3326 47.0708 21.1481 46.6767C21.1266 46.6311 21.1158 46.5822 21.1167 46.5318C21.1221 46.0815 21.2135 45.0768 21.2135 45.0768C21.2135 45.0768 22.2982 46.0009 22.8231 46.3347C22.9414 46.4104 23.0121 46.4259 23.1573 46.3925C23.8783 46.224 25.5364 45.7257 26.4464 45.4163C26.6543 45.3455 26.8361 45.2266 26.9776 45.0711C27.9191 44.0378 29.0997 42.4306 29.7813 41.2182C29.8754 41.0513 29.8933 40.86 29.8342 40.6809L29.6873 40.2412C29.6443 40.1126 29.4947 39.9676 29.3567 39.9196C27.7525 39.3651 26.4877 38.9531 25.0016 38.4931L25.179 38.4418Z" fill="white"/>
<path fill-rule="evenodd" clip-rule="evenodd" d="M53.9256 33.4685L54.4801 33.6875C54.644 33.7518 54.7936 33.8463 54.9172 33.9635C58.3166 37.1878 61.0352 40.5309 61.5798 41.4119C61.6846 41.5812 61.7562 41.7506 61.7822 41.9444C62.3931 46.6464 61.8682 51.6277 60.6204 55.9609C60.5076 56.3517 60.3813 56.552 59.9674 56.8346C58.6353 57.7452 56.6467 59.1972 54.6691 60.6776L54.0458 61.1455C51.6636 62.9379 49.4004 64.6928 48.44 65.5002C48.1991 65.7037 47.9886 65.9333 47.8166 66.1882C47.3662 66.8534 46.6786 67.9982 46.341 68.5664L46.2467 68.7254C46.179 68.8399 46.1397 68.9068 46.1397 68.9068C45.6919 68.0185 44.7155 65.8511 44.3805 64.975C44.2712 64.6892 44.2515 64.5394 44.367 64.1567C44.9135 62.3402 47.4959 57.0593 47.9984 56.1042L47.9993 56.495C47.9993 56.552 47.9894 56.6082 47.9697 56.662C47.7431 57.2865 46.3547 61.4487 46.0725 63.2538C46.0098 63.6552 46.0152 63.7635 46.0725 64.1575C46.1961 65.0002 46.7506 66.5456 46.7506 66.5456C46.7506 66.5456 47.0793 65.9219 47.3857 65.5002C47.5362 65.2934 47.6266 65.194 47.8721 64.9726C49.1136 63.8566 51.2316 62.1317 53.4377 60.3971L54.2187 59.7854C55.9133 58.4636 57.6051 57.1773 58.9417 56.1946C59.2893 55.9389 59.4192 55.768 59.4962 55.2827C59.8796 52.8922 59.9907 48.6013 59.7596 45.4788C59.7157 44.8894 59.5052 44.3194 59.1397 43.8301C58.3013 42.704 57.2989 41.6382 55.7788 40.2696C55.5621 40.0733 55.4143 39.8226 55.3587 39.549C54.9153 37.3995 53.9255 33.4685 53.9255 33.4685H53.9256Z" fill="white"/>
<path fill-rule="evenodd" clip-rule="evenodd" d="M36.0282 35.0334C36.0282 35.0334 36.3371 35.9428 36.635 36.9303L36.7391 37.2807C36.9273 37.9241 37.0952 38.5593 37.1559 38.9612C37.2141 39.3479 37.2043 39.4521 37.0529 39.8226C36.6858 40.71 36.0103 42.1374 35.2897 43.5966L34.9789 44.2225C34.0948 45.9928 33.1996 47.7031 32.765 48.4434C32.5509 48.8082 32.3493 49.0459 31.9462 49.418C31.0263 50.2689 29.2653 51.8769 28.1751 52.7766C27.7792 53.1039 27.6726 53.3832 27.592 53.8066C27.4621 54.4864 27.3331 55.6467 27.2973 56.2459C27.2659 56.7727 27.36 57.0194 27.6834 57.5413C29.6047 60.6557 36.0192 67.8207 37.8465 69.3253C37.9791 69.4344 38.0759 69.5077 38.3553 69.6763C38.6241 69.8391 39.5001 70.3553 39.5001 70.3553C39.535 70.3773 39.5646 70.4066 39.587 70.44L39.9041 70.9472C39.9041 70.9472 39.8744 70.9339 39.821 70.9098L39.6841 70.8479C39.5739 70.7981 39.4283 70.7322 39.261 70.6563L38.8538 70.471C38.2295 70.1864 37.4854 69.844 37.0941 69.6526C36.9329 69.5737 36.7815 69.4809 36.6409 69.3742C34.5009 67.7588 27.9431 60.7851 26.0146 57.8735C25.5336 57.1465 25.4843 56.9111 25.5488 56.2231C25.6697 54.9424 25.8569 53.3319 26.0209 52.626C26.1203 52.2002 26.2233 51.9502 26.5825 51.574C27.7895 50.3114 29.2619 48.6445 30.6965 46.9341L31.2008 46.3292C33.3751 43.7053 35.378 41.0791 36.1258 39.7412C36.2969 39.4367 36.3112 39.3308 36.3148 39.0434C36.3247 38.2097 36.0317 36.5861 35.9547 36.1758C35.9431 36.1115 35.9395 36.0463 35.9457 35.9812L36.0282 35.0334Z" fill="white"/>
<path fill-rule="evenodd" clip-rule="evenodd" d="M41.8909 45.3535C41.8909 45.3535 42.1381 46.6864 42.2133 47.0731C42.2554 47.2921 42.2644 47.3508 42.2035 47.5657C42.0059 48.2569 41.0932 51.9001 40.3625 55.6295L40.2488 56.2186C39.9503 57.7894 39.6924 59.3487 39.5422 60.6826C39.4571 61.4406 39.4849 61.6222 39.7052 62.2947C40.3296 64.195 42.6388 69.1601 43.0822 70.0655C43.1315 70.1656 43.161 70.2706 43.1754 70.3789L43.342 71.5498C42.6021 70.5344 38.582 63.8197 37.0028 60.1012C36.8164 59.6632 36.7806 59.4474 36.9866 58.6422C38.0848 54.37 41.056 47.1106 41.8909 45.3535H41.8909Z" fill="white"/>
</g>
<defs>
<clipPath id="clip0_88_608">
<rect width="84" height="84" fill="white"/>
</clipPath>
</defs>
</svg>
