<svg width="84" height="83" viewBox="0 0 84 83" fill="none" xmlns="http://www.w3.org/2000/svg">
<path d="M39.1948 0.0935007C62.3382 -1.42552 82.3559 15.7444 83.9047 38.4437C85.4534 61.1437 67.9475 80.7765 44.8041 82.2963C21.6599 83.8153 1.64297 66.6454 0.0942288 43.9453C-0.980806 28.1999 7.21075 13.2355 21.1862 5.41543C26.7023 2.33055 32.8589 0.510501 39.1948 0.0935007ZM40.4632 3.59538C19.2906 4.42093 2.80959 21.925 3.65208 42.6905C4.49379 63.4568 22.3395 79.6215 43.5122 78.796C64.684 77.9697 81.165 60.4664 80.3233 39.7001C79.8105 27.0534 72.8505 15.5072 61.7995 8.97108C55.3759 5.16662 47.9532 3.29665 40.4554 3.59538H40.4632Z" fill="#0D392E"/>
<path d="M32.6685 9.46581C36.6953 8.11786 40.9344 7.54372 45.1681 7.77306C45.6127 7.752 46.0558 7.82923 46.4681 7.99929C51.1148 11.7459 54.7924 16.5839 57.1831 22.0951C59.7731 28.4542 60.7292 35.3765 59.96 42.213C59.4861 47.1859 58.3131 52.0637 56.4755 56.6988H59.783C60.1061 55.8486 60.3984 54.9905 60.7369 54.148C64.5875 54.6441 68.1597 56.4445 70.875 59.2575C68.1697 62.0891 64.5883 63.8926 60.7292 64.3669C60.4138 63.5322 60.0984 62.7053 59.8061 61.8707C49.668 61.8707 39.5221 61.8707 29.384 61.8707C28.8763 61.905 28.3887 62.0836 27.9764 62.3855C26.861 62.955 25.761 63.5478 24.6457 64.1173C24.2372 64.3084 23.7865 64.3887 23.3381 64.3513C22.0304 64.3513 20.7227 64.3513 19.4074 64.3513C16.6467 61.366 14.4122 57.9228 12.7999 54.1714H21.7612C22.3988 54.1051 23.0434 54.1738 23.6534 54.3742C25.1403 55.024 26.6279 55.6824 28.1148 56.3478C29.2379 57.0187 30.584 56.6208 31.8224 56.7222C31.6324 53.499 30.714 50.3624 29.1379 47.5565C27.4625 44.8434 25.1295 42.6116 22.3611 41.0741C18.6505 39.0506 14.6476 37.6364 10.5 36.8851C11.0531 32.4403 12.4922 28.157 14.7306 24.2949C17.649 24.9681 20.5189 25.8386 23.3227 26.9003C26.3303 27.9861 29.1771 29.4847 31.7839 31.3545L32.6224 30.941C30.9378 29.0346 29.0402 27.3332 26.9687 25.8706C24.0219 23.6911 20.9389 21.7082 17.7382 19.9343C20.4281 16.6011 23.7334 13.8326 27.4687 11.7826C30.0248 12.8404 32.4139 14.2734 34.5608 16.034C37.8245 18.6893 40.8536 21.6286 43.6143 24.8175L44.6912 24.5289C41.9221 18.6472 37.5145 13.7016 32.6685 9.46581ZM47.6527 44.7638C45.5073 45.4565 44.3212 47.7811 45.0043 49.9575C45.6873 52.1331 47.9796 53.336 50.1257 52.6433C52.271 51.9506 53.4563 49.6252 52.774 47.4496C52.5179 46.6344 52.0187 45.9191 51.3448 45.4035C50.2879 44.5977 48.9134 44.3598 47.6527 44.7638Z" fill="#0D392E"/>
</svg>
