<svg width="85" height="55" viewBox="0 0 85 55" fill="none" xmlns="http://www.w3.org/2000/svg">
<g clip-path="url(#clip0_86_605)">
<path d="M42.5 0.380127C19.2468 0.380127 0.392914 12.5216 0.392914 27.4945C0.392914 42.473 19.2468 54.6199 42.5 54.6199C65.7533 54.6199 84.6071 42.4785 84.6071 27.4945C84.6071 12.5105 65.7533 0.380127 42.5 0.380127ZM42.5 42.9798C39.0414 42.9798 36.2191 36.1984 36.042 27.6653C38.1227 27.8471 40.2865 27.9462 42.5 27.9462C44.7136 27.9462 46.8773 27.8471 48.958 27.6653C48.7809 36.1929 45.9587 42.9798 42.5 42.9798ZM36.4681 20.8894C37.4089 14.8573 39.7552 10.5769 42.5 10.5769C45.2448 10.5769 47.5912 14.8573 48.5319 20.8894C46.6006 21.0602 44.5863 21.1539 42.5 21.1539C40.4137 21.1539 38.3994 21.0602 36.4681 20.8894ZM42.5 4.3024C37.9844 4.3024 34.1328 11.0342 32.7106 20.4322C24.1497 19.1046 18.1732 16.0747 18.1732 12.5546C18.1732 7.80601 29.0638 3.95535 42.5 3.95535C55.9362 3.95535 66.8268 7.80601 66.8268 12.5546C66.8268 16.0747 60.8503 19.1046 52.2894 20.4322C50.8672 11.0342 47.0156 4.3024 42.5 4.3024ZM6.43035 26.4809C6.43035 21.8865 8.20672 17.5731 11.3001 13.8712C11.2669 14.1301 11.2448 14.3945 11.2448 14.659C11.2448 20.4487 19.9662 25.3846 32.1351 27.2025C32.124 27.6212 32.124 28.0454 32.124 28.4696C32.124 39.2613 35.1621 48.4005 39.3623 51.5019C20.9069 50.3946 6.43035 39.6139 6.43035 26.4809ZM45.6377 51.5019C49.8379 48.4005 52.876 39.2613 52.876 28.4696C52.876 28.0399 52.8705 27.6212 52.8649 27.2025C65.0283 25.3846 73.7552 20.4542 73.7552 14.659C73.7552 14.3945 73.7331 14.1301 73.6999 13.8712C76.7933 17.5842 78.5697 21.8865 78.5697 26.4809C78.5697 39.6139 64.0931 50.3946 45.6377 51.5019Z" fill="#282830"/>
</g>
<defs>
<clipPath id="clip0_86_605">
<rect width="85" height="55" fill="white"/>
</clipPath>
</defs>
</svg>
