<svg width="11" height="16" viewBox="0 0 11 16" fill="none" xmlns="http://www.w3.org/2000/svg">
<path d="M1.20997e-05 7.99994C-0.00115723 8.16356 0.0806955 8.32062 0.227832 8.43679L9.65364 15.8191C9.85281 15.9751 10.1432 16.036 10.4155 15.9789C10.6875 15.9219 10.9001 15.7553 10.973 15.5423C11.0461 15.329 10.9682 15.1016 10.769 14.9455L1.89299 7.99997L10.769 1.05448C10.9682 0.898485 11.0461 0.671059 10.973 0.45781C10.9002 0.244732 10.6875 0.0782091 10.4155 0.0211134C10.1432 -0.0361229 9.85285 0.0249286 9.65364 0.18092L0.227832 7.56327C0.0806955 7.67927 -0.00115534 7.83646 1.20997e-05 7.99994Z" fill="#4A4A4A"/>
</svg>
